<?xml version="1.0" standalone="no"?>
<!DOCTYPE svg PUBLIC "-//W3C//DTD SVG 20010904//EN"
 "http://www.w3.org/TR/2001/REC-SVG-20010904/DTD/svg10.dtd">
<svg version="1.0" xmlns="http://www.w3.org/2000/svg"
 width="300.000000pt" height="168.000000pt" viewBox="0 0 300.000000 168.000000"
 preserveAspectRatio="xMidYMid meet">
<metadata>
Created by potrace 1.16, written by Peter Selinger 2001-2019
</metadata>
<g transform="translate(0.000000,168.000000) scale(0.100000,-0.100000)"
fill="#000000" stroke="none">
<path d="M0 840 l0 -840 1500 0 1500 0 0 840 0 840 -1500 0 -1500 0 0 -840z
m789 153 c6 -16 16 -53 21 -83 6 -30 17 -60 25 -66 17 -12 20 -34 6 -34 -5 0
-7 -27 -4 -61 8 -78 -14 -78 -35 -1 -14 49 -16 52 -48 52 -27 0 -35 -5 -40
-24 -3 -14 -14 -32 -25 -42 -10 -9 -19 -23 -19 -31 0 -7 -5 -13 -11 -13 -18 0
-3 70 43 208 44 130 64 151 87 95z m232 1 c40 -36 40 -111 0 -157 -13 -16 -13
-19 -1 -27 8 -6 23 -10 32 -10 9 0 29 -5 43 -12 21 -9 25 -18 25 -52 0 -27 -3
-36 -9 -27 -5 7 -14 10 -20 7 -6 -4 -11 -2 -11 3 0 7 -30 11 -79 11 -89 0
-141 8 -141 22 0 5 10 19 23 31 47 46 107 145 107 177 0 12 -70 7 -107 -7 -26
-10 -10 40 17 55 32 16 96 9 121 -14z m282 15 c34 -9 50 -33 28 -41 -6 -1 -25
-40 -45 -85 -36 -85 -35 -93 13 -93 9 0 25 -6 35 -13 15 -11 17 -21 11 -60 -7
-45 -25 -57 -25 -16 0 16 -7 19 -55 19 -52 0 -55 -1 -55 -26 0 -14 -4 -23 -10
-19 -5 3 -7 12 -3 20 3 8 1 15 -4 15 -6 0 -22 11 -37 24 l-28 23 22 24 c21 23
113 180 107 185 -1 1 -20 4 -42 6 -34 2 -40 0 -37 -14 2 -10 -2 -18 -8 -18 -7
0 -10 14 -8 32 2 27 8 34 33 39 46 10 67 10 108 -2z m441 -5 c11 -4 16 -19 15
-48 0 -37 -1 -39 -11 -18 -8 17 -19 22 -37 20 -26 -3 -26 -3 -22 -86 4 -109
-4 -152 -29 -152 -28 0 -40 56 -33 159 l6 88 -32 6 c-18 4 -31 13 -31 22 0 12
15 15 79 15 44 0 86 -3 95 -6z m184 -3 c8 -5 12 -17 10 -27 -3 -16 -12 -19
-53 -19 -50 0 -50 0 -53 -34 l-3 -34 41 6 c58 8 70 1 70 -39 0 -34 0 -34 -27
-21 -44 21 -73 11 -73 -24 0 -26 3 -29 34 -29 57 0 66 -8 66 -56 0 -45 -18
-61 -27 -24 -5 17 -14 20 -63 20 -55 0 -89 17 -77 37 3 5 6 60 8 123 1 63 4
118 6 123 6 10 125 9 141 -2z m188 -23 c7 -24 -5 -120 -16 -113 -4 2 -5 15 -3
28 3 14 -3 29 -16 41 -19 17 -20 17 -40 -23 -12 -24 -21 -59 -21 -87 l0 -47
50 7 50 7 0 -35 c0 -18 -7 -47 -15 -62 -15 -29 -19 -26 -16 9 2 13 -5 17 -32
17 -51 0 -97 54 -97 113 0 50 51 145 88 163 30 15 60 7 68 -18z m88 0 c3 -13
6 -42 6 -65 0 -38 3 -43 23 -43 35 0 47 19 47 77 0 45 3 53 19 53 19 0 31 -34
31 -90 0 -15 7 -33 15 -40 8 -7 15 -21 15 -31 0 -12 -5 -16 -15 -13 -12 5 -15
-2 -15 -30 0 -20 -8 -49 -17 -63 -10 -15 -12 -24 -5 -20 17 11 15 -11 -2 -29
-18 -18 -24 -9 -24 38 0 20 -3 50 -7 67 -5 26 -11 31 -35 31 -34 0 -40 -13
-40 -96 0 -37 -4 -63 -9 -60 -5 3 -7 14 -4 24 3 13 -5 25 -23 37 l-27 17 6
119 c3 65 8 123 12 128 11 19 42 12 49 -11z"/>
</g>
</svg>
